{"title":"Namboothiri Yuvavu At 43 (2014) Malayalam DVDRip XviD AC3-N3kr4","uid":10375334,"size":1556232192,"categoryP":"video","categoryS":"hd___movies","magnet":"?xt=urn:btih:9fecb3b385b8abad452b99b2e2467d69e58d26e6&amp;dn=Namboothiri+Yuvavu+At+43+%282014%29+Malayalam+DVDRip+XviD+AC3-N3kr4&amp;tr=udp%3A%2F%2Ftracker.openbittorrent.com%3A80&amp;tr=udp%3A%2F%2Fopen.demonii.com%3A1337&amp;tr=udp%3A%2F%2Ftracker.coppersurfer.tk%3A6969&amp;tr=udp%3A%2F%2Fexodus.desync.com%3A6969","seeders":4,"leechers":0,"uploader":"Falcon.G13","files":1,"time":1402985933,"description":" &lt;a href=&quot;http://i.imgur.com/aLOpJVn.jpg&quot; rel=&quot;nofollow&quot; target=&quot;_NEW&quot;&gt;http://i.imgur.com/aLOpJVn.jpg&lt;/a&gt; &lt;a href=&quot;\nhttp://i.imgur.com/kPFHmq7.jpg&quot; rel=&quot;nofollow&quot; target=&quot;_NEW&quot;&gt;\nhttp://i.imgur.com/kPFHmq7.jpg&lt;/a&gt; &lt;a href=&quot;\nhttp://i.imgur.com/0StbbGE.jpg&quot; rel=&quot;nofollow&quot; target=&quot;_NEW&quot;&gt;\nhttp://i.imgur.com/0StbbGE.jpg&lt;/a&gt; &lt;a href=&quot;\nhttp://i.imgur.com/3TBpPbJ.jpg&quot; rel=&quot;nofollow&quot; target=&quot;_NEW&quot;&gt;\nhttp://i.imgur.com/3TBpPbJ.jpg&lt;/a&gt; &lt;a href=&quot;\nhttp://i.imgur.com/k3gGdzy.jpg&quot; rel=&quot;nofollow&quot; target=&quot;_NEW&quot;&gt;\nhttp://i.imgur.com/k3gGdzy.jpg&lt;/a&gt; &lt;a href=&quot;\nhttp://i.imgur.com/d3AgYzO.jpg&quot; rel=&quot;nofollow&quot; target=&quot;_NEW&quot;&gt;\nhttp://i.imgur.com/d3AgYzO.jpg&lt;/a&gt; &lt;a href=&quot;\nhttp://i.imgur.com/UEekWN7.jpg&quot; rel=&quot;nofollow&quot; target=&quot;_NEW&quot;&gt;\nhttp://i.imgur.com/UEekWN7.jpg&lt;/a&gt; &lt;a href=&quot;\nhttp://i.imgur.com/CSXjX2S.jpg&quot; rel=&quot;nofollow&quot; target=&quot;_NEW&quot;&gt;\nhttp://i.imgur.com/CSXjX2S.jpg&lt;/a&gt;\n\nGeneral\nComplete name : Namboothiri Yuvavu At 43 (2014) DVDRip XviD AC3-N3kr4.avi\nFormat : AVI\nFormat/Info : Audio Video Interleave\nFile size : 1.45 GiB\nDuration : 1h 38mn\nOverall bit rate : 2 109 Kbps\nDirector : TmG\nWriting application : VirtualDubMod 1.5.10.3 | www.virtualdub-fr.org || (build 2550/release)\nWriting library : VirtualDubMod build 2550/release\n\nVideo\nID : 0\nFormat : MPEG-4 Visual\nFormat profile : Advanced Simple@L5\nFormat settings, BVOP : Yes\nFormat settings, QPel : No\nFormat settings, GMC : No warppoints\nFormat settings, Matrix : Default (MPEG)\nCodec ID : XVID\nCodec ID/Hint : XviD\nDuration : 1h 38mn\nBit rate : 1 652 Kbps\nWidth : 720 pixels\nHeight : 304 pixels\nDisplay aspect ratio : 2.35:1\nFrame rate : 23.976 fps\nColor space : YUV\nChroma subsampling : 4:2:0\nBit depth : 8 bits\nScan type : Progressive\nCompression mode : Lossy\nBits/(Pixel*Frame) : 0.315\nStream size : 1.14 GiB (78%)\nWriting library : XviD 1.2.1 (UTC 2008-12-04)\n\nAudio\nID : 1\nFormat : AC-3\nFormat/Info : Audio Coding 3\nMode extension : HI (hearing impaired)\nFormat settings, Endianness : Big\nCodec ID : 2000\nDuration : 1h 38mn\nBit rate mode : Constant\nBit rate : 448 Kbps\nChannel(s) : 6 channels\nChannel positions : Front: L C R, Side: L R, LFE\nSampling rate : 48.0 KHz\nBit depth : 16 bits\nCompression mode : Lossy\nStream size : 315 MiB (21%)\nAlignment : Split accross interleaves\nInterleave, duration : 42 ms (1.00 video frame)\nInterleave, preload duration : 500 ms","torrent":{"xt":"urn:btih:9fecb3b385b8abad452b99b2e2467d69e58d26e6","amp;dn":"Namboothiri+Yuvavu+At+43+%282014%29+Malayalam+DVDRip+XviD+AC3-N3kr4","amp;tr":["udp%3A%2F%2Ftracker.openbittorrent.com%3A80","udp%3A%2F%2Fopen.demonii.com%3A1337","udp%3A%2F%2Ftracker.coppersurfer.tk%3A6969","udp%3A%2F%2Fexodus.desync.com%3A6969"],"infoHash":"9fecb3b385b8abad452b99b2e2467d69e58d26e6","infoHashBuffer":{"type":"Buffer","data":[159,236,179,179,133,184,171,173,69,43,153,178,226,70,125,105,229,141,38,230]},"announce":[],"urlList":[]}}